<svg class="main-svg" xmlns="http://www.w3.org/2000/svg" xmlns:xlink="http://www.w3.org/1999/xlink" width="1231.43" height="500" style="background: rgb(255, 255, 255);"><defs id="defs-36b9a8"><g class="clips"><clipPath id="clip36b9a8xyplot" class="plotclip"><rect width="1136" height="203.6842105263158"></rect></clipPath><clipPath id="clip36b9a8xy2plot" class="plotclip"><rect width="1136" height="203.68421052631578"></rect></clipPath><clipPath class="axesclip" id="clip36b9a8x"><rect x="65" y="0" width="1136" height="500"></rect></clipPath><clipPath class="axesclip" id="clip36b9a8y"><rect x="0" y="30" width="1231.43" height="203.6842105263158"></rect></clipPath><clipPath class="axesclip" id="clip36b9a8xy"><rect x="65" y="30" width="1136" height="203.6842105263158"></rect></clipPath><clipPath class="axesclip" id="clip36b9a8y2"><rect x="0" y="256.3157894736843" width="1231.43" height="203.68421052631578"></rect></clipPath><clipPath class="axesclip" id="clip36b9a8xy2"><rect x="65" y="256.3157894736843" width="1136" height="203.68421052631578"></rect></clipPath></g><g class="gradients"></g><g class="patterns"></g></defs><g class="bglayer"></g><g class="draglayer cursor-crosshair"><g class="xy"><rect class="nsewdrag drag" data-subplot="xy" x="65" y="30" width="1136" height="203.6842105263158" style="fill: transparent; stroke-width: 0; pointer-events: all;"></rect><rect class="nwdrag drag cursor-nw-resize" data-subplot="xy" x="45" y="10" width="20" height="20" style="fill: transparent; stroke-width: 0; pointer-events: all;"></rect><rect class="nedrag drag cursor-ne-resize" data-subplot="xy" x="1201" y="10" width="20" height="20" style="fill: transparent; stroke-width: 0; pointer-events: all;"></rect><rect class="swdrag drag cursor-sw-resize" data-subplot="xy" x="45" y="233.6842105263158" width="20" height="20" style="fill: transparent; stroke-width: 0; pointer-events: all;"></rect><rect class="sedrag drag cursor-se-resize" data-subplot="xy" x="1201" y="233.6842105263158" width="20" height="20" style="fill: transparent; stroke-width: 0; pointer-events: all;"></rect><rect class="nsdrag drag cursor-ns-resize" data-subplot="xy" x="44.5" y="50.36842105263158" width="20" height="162.94736842105266" style="fill: transparent; stroke-width: 0; pointer-events: all;"></rect><rect class="sdrag drag cursor-s-resize" data-subplot="xy" x="44.5" y="213.31578947368422" width="20" height="20.368421052631582" style="fill: transparent; stroke-width: 0; pointer-events: all;"></rect><rect class="ndrag drag cursor-n-resize" data-subplot="xy" x="44.5" y="30" width="20" height="20.368421052631582" style="fill: transparent; stroke-width: 0; pointer-events: all;"></rect></g><g class="xy2"><rect class="nsewdrag drag" data-subplot="xy2" x="65" y="256.3157894736843" width="1136" height="203.68421052631578" style="fill: transparent; stroke-width: 0; pointer-events: all;"></rect><rect class="nwdrag drag cursor-nw-resize" data-subplot="xy2" x="45" y="236.31578947368428" width="20" height="20" style="fill: transparent; stroke-width: 0; pointer-events: all;"></rect><rect class="nedrag drag cursor-ne-resize" data-subplot="xy2" x="1201" y="236.31578947368428" width="20" height="20" style="fill: transparent; stroke-width: 0; pointer-events: all;"></rect><rect class="swdrag drag cursor-sw-resize" data-subplot="xy2" x="45" y="460.00000000000006" width="20" height="20" style="fill: transparent; stroke-width: 0; pointer-events: all;"></rect><rect class="sedrag drag cursor-se-resize" data-subplot="xy2" x="1201" y="460.00000000000006" width="20" height="20" style="fill: transparent; stroke-width: 0; pointer-events: all;"></rect><rect class="ewdrag drag cursor-ew-resize" data-subplot="xy2" x="178.60000000000002" y="460.50000000000006" width="908.8000000000001" height="20" style="fill: transparent; stroke-width: 0; pointer-events: all;"></rect><rect class="wdrag drag cursor-w-resize" data-subplot="xy2" x="65" y="460.50000000000006" width="113.60000000000001" height="20" style="fill: transparent; stroke-width: 0; pointer-events: all;"></rect><rect class="edrag drag cursor-e-resize" data-subplot="xy2" x="1087.4" y="460.50000000000006" width="113.60000000000001" height="20" style="fill: transparent; stroke-width: 0; pointer-events: all;"></rect><rect class="nsdrag drag cursor-ns-resize" data-subplot="xy2" x="44.5" y="276.68421052631584" width="20" height="162.94736842105263" style="fill: transparent; stroke-width: 0; pointer-events: all;"></rect><rect class="sdrag drag cursor-s-resize" data-subplot="xy2" x="44.5" y="439.6315789473685" width="20" height="20.36842105263158" style="fill: transparent; stroke-width: 0; pointer-events: all;"></rect><rect class="ndrag drag cursor-n-resize" data-subplot="xy2" x="44.5" y="256.3157894736843" width="20" height="20.36842105263158" style="fill: transparent; stroke-width: 0; pointer-events: all;"></rect></g></g><g class="layer-below"><g class="imagelayer"></g><g class="shapelayer"><g class="shape-group" data-index="0" clip-path="url(#clip36b9a8x)"><path data-index="0" fill-rule="evenodd" d="M321.47,460L321.47,30" style="opacity: 1; stroke: rgb(255, 215, 0); stroke-opacity: 1; fill: rgb(0, 0, 0); fill-opacity: 0; stroke-width: 1px;"></path></g><g class="shape-group" data-index="1" clip-path="url(#clip36b9a8x)"><path data-index="1" fill-rule="evenodd" d="M680.52,460L680.52,30" style="opacity: 1; stroke: rgb(255, 215, 0); stroke-opacity: 1; fill: rgb(0, 0, 0); fill-opacity: 0; stroke-width: 1px;"></path></g><g class="shape-group" data-index="2" clip-path="url(#clip36b9a8x)"><path data-index="2" fill-rule="evenodd" d="M680.52,460L680.52,30" style="opacity: 1; stroke: rgb(255, 215, 0); stroke-opacity: 1; fill: rgb(0, 0, 0); fill-opacity: 0; stroke-width: 1px;"></path></g><g class="shape-group" data-index="3" clip-path="url(#clip36b9a8x)"><path data-index="3" fill-rule="evenodd" d="M931.85,460L931.85,30" style="opacity: 1; stroke: rgb(255, 215, 0); stroke-opacity: 1; fill: rgb(0, 0, 0); fill-opacity: 0; stroke-width: 1px;"></path></g><g class="shape-group" data-index="4" clip-path="url(#clip36b9a8x)"><path data-index="4" fill-rule="evenodd" d="M931.85,460L931.85,30" style="opacity: 1; stroke: rgb(255, 215, 0); stroke-opacity: 1; fill: rgb(0, 0, 0); fill-opacity: 0; stroke-width: 1px;"></path></g><g class="shape-group" data-index="5" clip-path="url(#clip36b9a8x)"><path data-index="5" fill-rule="evenodd" d="M1107.79,460L1107.79,30" style="opacity: 1; stroke: rgb(255, 215, 0); stroke-opacity: 1; fill: rgb(0, 0, 0); fill-opacity: 0; stroke-width: 1px;"></path></g></g></g><g class="cartesianlayer"><g class="subplot xy"><g class="layer-subplot"><g class="shapelayer"></g><g class="imagelayer"></g></g><g class="minor-gridlayer"><g class="x"></g><g class="y"></g></g><g class="gridlayer"><g class="x"><path class="xgrid crisp" transform="translate(349,0)" d="M0,30v203.6842105263158" style="stroke: rgb(211, 211, 211); stroke-opacity: 0.5; stroke-width: 1px;"></path><path class="xgrid crisp" transform="translate(633,0)" d="M0,30v203.6842105263158" style="stroke: rgb(211, 211, 211); stroke-opacity: 0.5; stroke-width: 1px;"></path><path class="xgrid crisp" transform="translate(917,0)" d="M0,30v203.6842105263158" style="stroke: rgb(211, 211, 211); stroke-opacity: 0.5; stroke-width: 1px;"></path></g><g class="y"><path class="ygrid crisp" transform="translate(0,184.59)" d="M65,0h1136" style="stroke: rgb(211, 211, 211); stroke-opacity: 0.5; stroke-width: 1px;"></path><path class="ygrid crisp" transform="translate(0,149.42000000000002)" d="M65,0h1136" style="stroke: rgb(211, 211, 211); stroke-opacity: 0.5; stroke-width: 1px;"></path><path class="ygrid crisp" transform="translate(0,114.26)" d="M65,0h1136" style="stroke: rgb(211, 211, 211); stroke-opacity: 0.5; stroke-width: 1px;"></path><path class="ygrid crisp" transform="translate(0,79.1)" d="M65,0h1136" style="stroke: rgb(211, 211, 211); stroke-opacity: 0.5; stroke-width: 1px;"></path><path class="ygrid crisp" transform="translate(0,43.93)" d="M65,0h1136" style="stroke: rgb(211, 211, 211); stroke-opacity: 0.5; stroke-width: 1px;"></path></g></g><g class="zerolinelayer"><path class="xzl zl crisp" transform="translate(65,0)" d="M0,30v203.6842105263158" style="stroke: rgb(211, 211, 211); stroke-opacity: 0.5; stroke-width: 1px;"></path><path class="yzl zl crisp" transform="translate(0,219.75)" d="M65,0h1136" style="stroke: rgb(211, 211, 211); stroke-opacity: 0.5; stroke-width: 1px;"></path></g><g class="layer-between"><g class="shapelayer"></g><g class="imagelayer"></g></g><path class="xlines-below"></path><path class="ylines-below"></path><g class="overlines-below"></g><g class="xaxislayer-below"></g><g class="yaxislayer-below"></g><g class="overaxes-below"></g><g class="overplot"><g class="xy" transform="translate(65,30)" clip-path="url(#clip36b9a8xyplot)"><g class="scatterlayer mlayer"><g class="trace scatter trace5fdbd5" style="stroke-miterlimit: 2; opacity: 1;"><g class="fills"></g><g class="errorbars"></g><g class="lines"><path class="js-line" d="M0,13.93L28.4,16.09L56.8,22.56L85.2,33.34L113.6,48.43L142,67.83L170.4,91.55L198.8,119.58L227.2,151.91L256.47,189.75L256.47,189.75L284,165.35L312.4,144.43L340.8,127.82L369.2,115.52L397.6,107.54L426,103.87L454.4,104.51L482.8,109.46L511.2,118.72L539.6,132.29L568,150.18L596.4,172.38L615.52,189.75L624.8,183.74L653.2,168.23L681.6,157.03L710,150.14L738.4,147.56L766.8,149.29L795.2,155.34L823.6,165.69L852,180.36L866.85,189.75L880.4,183.87L908.8,174.73L937.2,169.9L965.6,169.38L994,173.17L1022.4,181.27L1042.79,189.75L1050.8,187.28L1079.2,181.31L1107.6,179.64L1136,182.29" style="vector-effect: non-scaling-stroke; fill: none; stroke: rgb(34, 154, 235); stroke-opacity: 1; stroke-width: 1.5px; opacity: 1;"></path></g><g class="points"><path class="point" transform="translate(0,13.93)" d="M3,0A3,3 0 1,1 0,-3A3,3 0 0,1 3,0Z" style="opacity: 1; stroke-width: 0px; fill: rgb(34, 154, 235); fill-opacity: 1;"></path><path class="point" transform="translate(28.4,16.09)" d="M3,0A3,3 0 1,1 0,-3A3,3 0 0,1 3,0Z" style="opacity: 1; stroke-width: 0px; fill: rgb(34, 154, 235); fill-opacity: 1;"></path><path class="point" transform="translate(56.8,22.56)" d="M3,0A3,3 0 1,1 0,-3A3,3 0 0,1 3,0Z" style="opacity: 1; stroke-width: 0px; fill: rgb(34, 154, 235); fill-opacity: 1;"></path><path class="point" transform="translate(85.2,33.34)" d="M3,0A3,3 0 1,1 0,-3A3,3 0 0,1 3,0Z" style="opacity: 1; stroke-width: 0px; fill: rgb(34, 154, 235); fill-opacity: 1;"></path><path class="point" transform="translate(113.6,48.43)" d="M3,0A3,3 0 1,1 0,-3A3,3 0 0,1 3,0Z" style="opacity: 1; stroke-width: 0px; fill: rgb(34, 154, 235); fill-opacity: 1;"></path><path class="point" transform="translate(142,67.83)" d="M3,0A3,3 0 1,1 0,-3A3,3 0 0,1 3,0Z" style="opacity: 1; stroke-width: 0px; fill: rgb(34, 154, 235); fill-opacity: 1;"></path><path class="point" transform="translate(170.4,91.55)" d="M3,0A3,3 0 1,1 0,-3A3,3 0 0,1 3,0Z" style="opacity: 1; stroke-width: 0px; fill: rgb(34, 154, 235); fill-opacity: 1;"></path><path class="point" transform="translate(198.8,119.58)" d="M3,0A3,3 0 1,1 0,-3A3,3 0 0,1 3,0Z" style="opacity: 1; stroke-width: 0px; fill: rgb(34, 154, 235); fill-opacity: 1;"></path><path class="point" transform="translate(227.2,151.91)" d="M3,0A3,3 0 1,1 0,-3A3,3 0 0,1 3,0Z" style="opacity: 1; stroke-width: 0px; fill: rgb(34, 154, 235); fill-opacity: 1;"></path><path class="point" transform="translate(255.6,188.57)" d="M3,0A3,3 0 1,1 0,-3A3,3 0 0,1 3,0Z" style="opacity: 1; stroke-width: 0px; fill: rgb(34, 154, 235); fill-opacity: 1;"></path><path class="point" transform="translate(256.47,189.75)" d="M3,0A3,3 0 1,1 0,-3A3,3 0 0,1 3,0Z" style="opacity: 1; stroke-width: 0px; fill: rgb(34, 154, 235); fill-opacity: 1;"></path><path class="point" transform="translate(256.47,189.75)" d="M3,0A3,3 0 1,1 0,-3A3,3 0 0,1 3,0Z" style="opacity: 1; stroke-width: 0px; fill: rgb(34, 154, 235); fill-opacity: 1;"></path><path class="point" transform="translate(284,165.35)" d="M3,0A3,3 0 1,1 0,-3A3,3 0 0,1 3,0Z" style="opacity: 1; stroke-width: 0px; fill: rgb(34, 154, 235); fill-opacity: 1;"></path><path class="point" transform="translate(312.4,144.43)" d="M3,0A3,3 0 1,1 0,-3A3,3 0 0,1 3,0Z" style="opacity: 1; stroke-width: 0px; fill: rgb(34, 154, 235); fill-opacity: 1;"></path><path class="point" transform="translate(340.8,127.82)" d="M3,0A3,3 0 1,1 0,-3A3,3 0 0,1 3,0Z" style="opacity: 1; stroke-width: 0px; fill: rgb(34, 154, 235); fill-opacity: 1;"></path><path class="point" transform="translate(369.2,115.52)" d="M3,0A3,3 0 1,1 0,-3A3,3 0 0,1 3,0Z" style="opacity: 1; stroke-width: 0px; fill: rgb(34, 154, 235); fill-opacity: 1;"></path><path class="point" transform="translate(397.6,107.54)" d="M3,0A3,3 0 1,1 0,-3A3,3 0 0,1 3,0Z" style="opacity: 1; stroke-width: 0px; fill: rgb(34, 154, 235); fill-opacity: 1;"></path><path class="point" transform="translate(426,103.87)" d="M3,0A3,3 0 1,1 0,-3A3,3 0 0,1 3,0Z" style="opacity: 1; stroke-width: 0px; fill: rgb(34, 154, 235); fill-opacity: 1;"></path><path class="point" transform="translate(454.4,104.51)" d="M3,0A3,3 0 1,1 0,-3A3,3 0 0,1 3,0Z" style="opacity: 1; stroke-width: 0px; fill: rgb(34, 154, 235); fill-opacity: 1;"></path><path class="point" transform="translate(482.8,109.46)" d="M3,0A3,3 0 1,1 0,-3A3,3 0 0,1 3,0Z" style="opacity: 1; stroke-width: 0px; fill: rgb(34, 154, 235); fill-opacity: 1;"></path><path class="point" transform="translate(511.2,118.72)" d="M3,0A3,3 0 1,1 0,-3A3,3 0 0,1 3,0Z" style="opacity: 1; stroke-width: 0px; fill: rgb(34, 154, 235); fill-opacity: 1;"></path><path class="point" transform="translate(539.6,132.29)" d="M3,0A3,3 0 1,1 0,-3A3,3 0 0,1 3,0Z" style="opacity: 1; stroke-width: 0px; fill: rgb(34, 154, 235); fill-opacity: 1;"></path><path class="point" transform="translate(568,150.18)" d="M3,0A3,3 0 1,1 0,-3A3,3 0 0,1 3,0Z" style="opacity: 1; stroke-width: 0px; fill: rgb(34, 154, 235); fill-opacity: 1;"></path><path class="point" transform="translate(596.4,172.38)" d="M3,0A3,3 0 1,1 0,-3A3,3 0 0,1 3,0Z" style="opacity: 1; stroke-width: 0px; fill: rgb(34, 154, 235); fill-opacity: 1;"></path><path class="point" transform="translate(615.52,189.75)" d="M3,0A3,3 0 1,1 0,-3A3,3 0 0,1 3,0Z" style="opacity: 1; stroke-width: 0px; fill: rgb(34, 154, 235); fill-opacity: 1;"></path><path class="point" transform="translate(615.52,189.75)" d="M3,0A3,3 0 1,1 0,-3A3,3 0 0,1 3,0Z" style="opacity: 1; stroke-width: 0px; fill: rgb(34, 154, 235); fill-opacity: 1;"></path><path class="point" transform="translate(615.52,189.75)" d="M3,0A3,3 0 1,1 0,-3A3,3 0 0,1 3,0Z" style="opacity: 1; stroke-width: 0px; fill: rgb(34, 154, 235); fill-opacity: 1;"></path><path class="point" transform="translate(615.52,189.75)" d="M3,0A3,3 0 1,1 0,-3A3,3 0 0,1 3,0Z" style="opacity: 1; stroke-width: 0px; fill: rgb(34, 154, 235); fill-opacity: 1;"></path><path class="point" transform="translate(624.8,183.74)" d="M3,0A3,3 0 1,1 0,-3A3,3 0 0,1 3,0Z" style="opacity: 1; stroke-width: 0px; fill: rgb(34, 154, 235); fill-opacity: 1;"></path><path class="point" transform="translate(653.2,168.23)" d="M3,0A3,3 0 1,1 0,-3A3,3 0 0,1 3,0Z" style="opacity: 1; stroke-width: 0px; fill: rgb(34, 154, 235); fill-opacity: 1;"></path><path class="point" transform="translate(681.6,157.03)" d="M3,0A3,3 0 1,1 0,-3A3,3 0 0,1 3,0Z" style="opacity: 1; stroke-width: 0px; fill: rgb(34, 154, 235); fill-opacity: 1;"></path><path class="point" transform="translate(710,150.14)" d="M3,0A3,3 0 1,1 0,-3A3,3 0 0,1 3,0Z" style="opacity: 1; stroke-width: 0px; fill: rgb(34, 154, 235); fill-opacity: 1;"></path><path class="point" transform="translate(738.4,147.56)" d="M3,0A3,3 0 1,1 0,-3A3,3 0 0,1 3,0Z" style="opacity: 1; stroke-width: 0px; fill: rgb(34, 154, 235); fill-opacity: 1;"></path><path class="point" transform="translate(766.8,149.29)" d="M3,0A3,3 0 1,1 0,-3A3,3 0 0,1 3,0Z" style="opacity: 1; stroke-width: 0px; fill: rgb(34, 154, 235); fill-opacity: 1;"></path><path class="point" transform="translate(795.2,155.34)" d="M3,0A3,3 0 1,1 0,-3A3,3 0 0,1 3,0Z" style="opacity: 1; stroke-width: 0px; fill: rgb(34, 154, 235); fill-opacity: 1;"></path><path class="point" transform="translate(823.6,165.69)" d="M3,0A3,3 0 1,1 0,-3A3,3 0 0,1 3,0Z" style="opacity: 1; stroke-width: 0px; fill: rgb(34, 154, 235); fill-opacity: 1;"></path><path class="point" transform="translate(852,180.36)" d="M3,0A3,3 0 1,1 0,-3A3,3 0 0,1 3,0Z" style="opacity: 1; stroke-width: 0px; fill: rgb(34, 154, 235); fill-opacity: 1;"></path><path class="point" transform="translate(866.85,189.75)" d="M3,0A3,3 0 1,1 0,-3A3,3 0 0,1 3,0Z" style="opacity: 1; stroke-width: 0px; fill: rgb(34, 154, 235); fill-opacity: 1;"></path><path class="point" transform="translate(866.85,189.75)" d="M3,0A3,3 0 1,1 0,-3A3,3 0 0,1 3,0Z" style="opacity: 1; stroke-width: 0px; fill: rgb(34, 154, 235); fill-opacity: 1;"></path><path class="point" transform="translate(866.85,189.75)" d="M3,0A3,3 0 1,1 0,-3A3,3 0 0,1 3,0Z" style="opacity: 1; stroke-width: 0px; fill: rgb(34, 154, 235); fill-opacity: 1;"></path><path class="point" transform="translate(866.85,189.75)" d="M3,0A3,3 0 1,1 0,-3A3,3 0 0,1 3,0Z" style="opacity: 1; stroke-width: 0px; fill: rgb(34, 154, 235); fill-opacity: 1;"></path><path class="point" transform="translate(880.4,183.87)" d="M3,0A3,3 0 1,1 0,-3A3,3 0 0,1 3,0Z" style="opacity: 1; stroke-width: 0px; fill: rgb(34, 154, 235); fill-opacity: 1;"></path><path class="point" transform="translate(908.8,174.73)" d="M3,0A3,3 0 1,1 0,-3A3,3 0 0,1 3,0Z" style="opacity: 1; stroke-width: 0px; fill: rgb(34, 154, 235); fill-opacity: 1;"></path><path class="point" transform="translate(937.2,169.9)" d="M3,0A3,3 0 1,1 0,-3A3,3 0 0,1 3,0Z" style="opacity: 1; stroke-width: 0px; fill: rgb(34, 154, 235); fill-opacity: 1;"></path><path class="point" transform="translate(965.6,169.38)" d="M3,0A3,3 0 1,1 0,-3A3,3 0 0,1 3,0Z" style="opacity: 1; stroke-width: 0px; fill: rgb(34, 154, 235); fill-opacity: 1;"></path><path class="point" transform="translate(994,173.17)" d="M3,0A3,3 0 1,1 0,-3A3,3 0 0,1 3,0Z" style="opacity: 1; stroke-width: 0px; fill: rgb(34, 154, 235); fill-opacity: 1;"></path><path class="point" transform="translate(1022.4,181.27)" d="M3,0A3,3 0 1,1 0,-3A3,3 0 0,1 3,0Z" style="opacity: 1; stroke-width: 0px; fill: rgb(34, 154, 235); fill-opacity: 1;"></path><path class="point" transform="translate(1042.79,189.75)" d="M3,0A3,3 0 1,1 0,-3A3,3 0 0,1 3,0Z" style="opacity: 1; stroke-width: 0px; fill: rgb(34, 154, 235); fill-opacity: 1;"></path><path class="point" transform="translate(1042.79,189.75)" d="M3,0A3,3 0 1,1 0,-3A3,3 0 0,1 3,0Z" style="opacity: 1; stroke-width: 0px; fill: rgb(34, 154, 235); fill-opacity: 1;"></path><path class="point" transform="translate(1050.8,187.28)" d="M3,0A3,3 0 1,1 0,-3A3,3 0 0,1 3,0Z" style="opacity: 1; stroke-width: 0px; fill: rgb(34, 154, 235); fill-opacity: 1;"></path><path class="point" transform="translate(1079.2,181.31)" d="M3,0A3,3 0 1,1 0,-3A3,3 0 0,1 3,0Z" style="opacity: 1; stroke-width: 0px; fill: rgb(34, 154, 235); fill-opacity: 1;"></path><path class="point" transform="translate(1107.6,179.64)" d="M3,0A3,3 0 1,1 0,-3A3,3 0 0,1 3,0Z" style="opacity: 1; stroke-width: 0px; fill: rgb(34, 154, 235); fill-opacity: 1;"></path><path class="point" transform="translate(1136,182.29)" d="M3,0A3,3 0 1,1 0,-3A3,3 0 0,1 3,0Z" style="opacity: 1; stroke-width: 0px; fill: rgb(34, 154, 235); fill-opacity: 1;"></path></g><g class="text"></g></g></g></g></g><path class="xlines-above crisp" d="M0,0" style="fill: none;"></path><path class="ylines-above crisp" d="M0,0" style="fill: none;"></path><g class="overlines-above"></g><g class="xaxislayer-above"></g><g class="yaxislayer-above"><g class="ytick"><text text-anchor="end" x="64" y="4.199999999999999" data-unformatted="0" data-math="N" transform="translate(0,219.75)" style="font-family: &quot;Open Sans&quot;, verdana, arial, sans-serif; font-size: 12px; fill: rgb(68, 68, 68); fill-opacity: 1; font-weight: normal; font-style: normal; font-variant: normal; white-space: pre; opacity: 1;">0</text></g><g class="ytick"><text text-anchor="end" x="64" y="4.199999999999999" data-unformatted="0.2" data-math="N" style="font-family: &quot;Open Sans&quot;, verdana, arial, sans-serif; font-size: 12px; fill: rgb(68, 68, 68); fill-opacity: 1; font-weight: normal; font-style: normal; font-variant: normal; white-space: pre; opacity: 1;" transform="translate(0,184.59)">0.2</text></g><g class="ytick"><text text-anchor="end" x="64" y="4.199999999999999" data-unformatted="0.4" data-math="N" style="font-family: &quot;Open Sans&quot;, verdana, arial, sans-serif; font-size: 12px; fill: rgb(68, 68, 68); fill-opacity: 1; font-weight: normal; font-style: normal; font-variant: normal; white-space: pre; opacity: 1;" transform="translate(0,149.42000000000002)">0.4</text></g><g class="ytick"><text text-anchor="end" x="64" y="4.199999999999999" data-unformatted="0.6" data-math="N" style="font-family: &quot;Open Sans&quot;, verdana, arial, sans-serif; font-size: 12px; fill: rgb(68, 68, 68); fill-opacity: 1; font-weight: normal; font-style: normal; font-variant: normal; white-space: pre; opacity: 1;" transform="translate(0,114.26)">0.6</text></g><g class="ytick"><text text-anchor="end" x="64" y="4.199999999999999" data-unformatted="0.8" data-math="N" style="font-family: &quot;Open Sans&quot;, verdana, arial, sans-serif; font-size: 12px; fill: rgb(68, 68, 68); fill-opacity: 1; font-weight: normal; font-style: normal; font-variant: normal; white-space: pre; opacity: 1;" transform="translate(0,79.1)">0.8</text></g><g class="ytick"><text text-anchor="end" x="64" y="4.199999999999999" data-unformatted="1" data-math="N" style="font-family: &quot;Open Sans&quot;, verdana, arial, sans-serif; font-size: 12px; fill: rgb(68, 68, 68); fill-opacity: 1; font-weight: normal; font-style: normal; font-variant: normal; white-space: pre; opacity: 1;" transform="translate(0,43.93)">1</text></g></g><g class="overaxes-above"></g></g><g class="subplot xy2"><g class="layer-subplot"><g class="shapelayer"></g><g class="imagelayer"></g></g><g class="minor-gridlayer"><g class="x"></g><g class="y2"></g></g><g class="gridlayer"><g class="x"><path class="xgrid crisp" transform="translate(349,0)" d="M0,256.3157894736843v203.68421052631578" style="stroke: rgb(211, 211, 211); stroke-opacity: 0.5; stroke-width: 1px;"></path><path class="xgrid crisp" transform="translate(633,0)" d="M0,256.3157894736843v203.68421052631578" style="stroke: rgb(211, 211, 211); stroke-opacity: 0.5; stroke-width: 1px;"></path><path class="xgrid crisp" transform="translate(917,0)" d="M0,256.3157894736843v203.68421052631578" style="stroke: rgb(211, 211, 211); stroke-opacity: 0.5; stroke-width: 1px;"></path></g><g class="y2"><path class="y2grid crisp" transform="translate(0,436.0357894736843)" d="M65,0h1136" style="stroke: rgb(211, 211, 211); stroke-opacity: 0.5; stroke-width: 1px;"></path><path class="y2grid crisp" transform="translate(0,389.34578947368425)" d="M65,0h1136" style="stroke: rgb(211, 211, 211); stroke-opacity: 0.5; stroke-width: 1px;"></path><path class="y2grid crisp" transform="translate(0,295.9457894736843)" d="M65,0h1136" style="stroke: rgb(211, 211, 211); stroke-opacity: 0.5; stroke-width: 1px;"></path></g></g><g class="zerolinelayer"><path class="xzl zl crisp" transform="translate(65,0)" d="M0,256.3157894736843v203.68421052631578" style="stroke: rgb(211, 211, 211); stroke-opacity: 0.5; stroke-width: 1px;"></path><path class="y2zl zl crisp" transform="translate(0,342.64578947368426)" d="M65,0h1136" style="stroke: rgb(211, 211, 211); stroke-opacity: 0.5; stroke-width: 1px;"></path></g><g class="layer-between"><g class="shapelayer"></g><g class="imagelayer"></g></g><path class="xlines-below"></path><path class="ylines-below"></path><g class="overlines-below"></g><g class="xaxislayer-below"></g><g class="yaxislayer-below"></g><g class="overaxes-below"></g><g class="overplot"><g class="xy2" transform="translate(65,256.3157894736843)" clip-path="url(#clip36b9a8xy2plot)"><g class="scatterlayer mlayer"><g class="trace scatter tracec3dadd" style="stroke-miterlimit: 2; opacity: 1;"><g class="fills"></g><g class="errorbars"></g><g class="lines"><path class="js-line" d="M0,86.33L256.47,189.75L256.47,13.93L615.52,158.72L615.52,158.72L615.52,35.65L866.85,137.01L866.85,137.01L866.85,50.86L1042.79,121.8L1042.79,61.5L1136,99.09" style="vector-effect: non-scaling-stroke; fill: none; stroke: rgb(34, 154, 235); stroke-opacity: 1; stroke-width: 1.5px; opacity: 1;"></path></g><g class="points"><path class="point" transform="translate(0,86.33)" d="M3,0A3,3 0 1,1 0,-3A3,3 0 0,1 3,0Z" style="opacity: 1; stroke-width: 0px; fill: rgb(34, 154, 235); fill-opacity: 1;"></path><path class="point" transform="translate(28.4,97.78)" d="M3,0A3,3 0 1,1 0,-3A3,3 0 0,1 3,0Z" style="opacity: 1; stroke-width: 0px; fill: rgb(34, 154, 235); fill-opacity: 1;"></path><path class="point" transform="translate(56.8,109.23)" d="M3,0A3,3 0 1,1 0,-3A3,3 0 0,1 3,0Z" style="opacity: 1; stroke-width: 0px; fill: rgb(34, 154, 235); fill-opacity: 1;"></path><path class="point" transform="translate(85.2,120.69)" d="M3,0A3,3 0 1,1 0,-3A3,3 0 0,1 3,0Z" style="opacity: 1; stroke-width: 0px; fill: rgb(34, 154, 235); fill-opacity: 1;"></path><path class="point" transform="translate(113.6,132.14)" d="M3,0A3,3 0 1,1 0,-3A3,3 0 0,1 3,0Z" style="opacity: 1; stroke-width: 0px; fill: rgb(34, 154, 235); fill-opacity: 1;"></path><path class="point" transform="translate(142,143.59)" d="M3,0A3,3 0 1,1 0,-3A3,3 0 0,1 3,0Z" style="opacity: 1; stroke-width: 0px; fill: rgb(34, 154, 235); fill-opacity: 1;"></path><path class="point" transform="translate(170.4,155.04)" d="M3,0A3,3 0 1,1 0,-3A3,3 0 0,1 3,0Z" style="opacity: 1; stroke-width: 0px; fill: rgb(34, 154, 235); fill-opacity: 1;"></path><path class="point" transform="translate(198.8,166.5)" d="M3,0A3,3 0 1,1 0,-3A3,3 0 0,1 3,0Z" style="opacity: 1; stroke-width: 0px; fill: rgb(34, 154, 235); fill-opacity: 1;"></path><path class="point" transform="translate(227.2,177.95)" d="M3,0A3,3 0 1,1 0,-3A3,3 0 0,1 3,0Z" style="opacity: 1; stroke-width: 0px; fill: rgb(34, 154, 235); fill-opacity: 1;"></path><path class="point" transform="translate(255.6,189.4)" d="M3,0A3,3 0 1,1 0,-3A3,3 0 0,1 3,0Z" style="opacity: 1; stroke-width: 0px; fill: rgb(34, 154, 235); fill-opacity: 1;"></path><path class="point" transform="translate(256.47,189.75)" d="M3,0A3,3 0 1,1 0,-3A3,3 0 0,1 3,0Z" style="opacity: 1; stroke-width: 0px; fill: rgb(34, 154, 235); fill-opacity: 1;"></path><path class="point" transform="translate(256.47,13.93)" d="M3,0A3,3 0 1,1 0,-3A3,3 0 0,1 3,0Z" style="opacity: 1; stroke-width: 0px; fill: rgb(34, 154, 235); fill-opacity: 1;"></path><path class="point" transform="translate(284,25.04)" d="M3,0A3,3 0 1,1 0,-3A3,3 0 0,1 3,0Z" style="opacity: 1; stroke-width: 0px; fill: rgb(34, 154, 235); fill-opacity: 1;"></path><path class="point" transform="translate(312.4,36.49)" d="M3,0A3,3 0 1,1 0,-3A3,3 0 0,1 3,0Z" style="opacity: 1; stroke-width: 0px; fill: rgb(34, 154, 235); fill-opacity: 1;"></path><path class="point" transform="translate(340.8,47.94)" d="M3,0A3,3 0 1,1 0,-3A3,3 0 0,1 3,0Z" style="opacity: 1; stroke-width: 0px; fill: rgb(34, 154, 235); fill-opacity: 1;"></path><path class="point" transform="translate(369.2,59.4)" d="M3,0A3,3 0 1,1 0,-3A3,3 0 0,1 3,0Z" style="opacity: 1; stroke-width: 0px; fill: rgb(34, 154, 235); fill-opacity: 1;"></path><path class="point" transform="translate(397.6,70.85)" d="M3,0A3,3 0 1,1 0,-3A3,3 0 0,1 3,0Z" style="opacity: 1; stroke-width: 0px; fill: rgb(34, 154, 235); fill-opacity: 1;"></path><path class="point" transform="translate(426,82.3)" d="M3,0A3,3 0 1,1 0,-3A3,3 0 0,1 3,0Z" style="opacity: 1; stroke-width: 0px; fill: rgb(34, 154, 235); fill-opacity: 1;"></path><path class="point" transform="translate(454.4,93.75)" d="M3,0A3,3 0 1,1 0,-3A3,3 0 0,1 3,0Z" style="opacity: 1; stroke-width: 0px; fill: rgb(34, 154, 235); fill-opacity: 1;"></path><path class="point" transform="translate(482.8,105.2)" d="M3,0A3,3 0 1,1 0,-3A3,3 0 0,1 3,0Z" style="opacity: 1; stroke-width: 0px; fill: rgb(34, 154, 235); fill-opacity: 1;"></path><path class="point" transform="translate(511.2,116.66)" d="M3,0A3,3 0 1,1 0,-3A3,3 0 0,1 3,0Z" style="opacity: 1; stroke-width: 0px; fill: rgb(34, 154, 235); fill-opacity: 1;"></path><path class="point" transform="translate(539.6,128.11)" d="M3,0A3,3 0 1,1 0,-3A3,3 0 0,1 3,0Z" style="opacity: 1; stroke-width: 0px; fill: rgb(34, 154, 235); fill-opacity: 1;"></path><path class="point" transform="translate(568,139.56)" d="M3,0A3,3 0 1,1 0,-3A3,3 0 0,1 3,0Z" style="opacity: 1; stroke-width: 0px; fill: rgb(34, 154, 235); fill-opacity: 1;"></path><path class="point" transform="translate(596.4,151.01)" d="M3,0A3,3 0 1,1 0,-3A3,3 0 0,1 3,0Z" style="opacity: 1; stroke-width: 0px; fill: rgb(34, 154, 235); fill-opacity: 1;"></path><path class="point" transform="translate(615.52,158.72)" d="M3,0A3,3 0 1,1 0,-3A3,3 0 0,1 3,0Z" style="opacity: 1; stroke-width: 0px; fill: rgb(34, 154, 235); fill-opacity: 1;"></path><path class="point" transform="translate(615.52,158.72)" d="M3,0A3,3 0 1,1 0,-3A3,3 0 0,1 3,0Z" style="opacity: 1; stroke-width: 0px; fill: rgb(34, 154, 235); fill-opacity: 1;"></path><path class="point" transform="translate(615.52,158.72)" d="M3,0A3,3 0 1,1 0,-3A3,3 0 0,1 3,0Z" style="opacity: 1; stroke-width: 0px; fill: rgb(34, 154, 235); fill-opacity: 1;"></path><path class="point" transform="translate(615.52,35.65)" d="M3,0A3,3 0 1,1 0,-3A3,3 0 0,1 3,0Z" style="opacity: 1; stroke-width: 0px; fill: rgb(34, 154, 235); fill-opacity: 1;"></path><path class="point" transform="translate(624.8,39.4)" d="M3,0A3,3 0 1,1 0,-3A3,3 0 0,1 3,0Z" style="opacity: 1; stroke-width: 0px; fill: rgb(34, 154, 235); fill-opacity: 1;"></path><path class="point" transform="translate(653.2,50.85)" d="M3,0A3,3 0 1,1 0,-3A3,3 0 0,1 3,0Z" style="opacity: 1; stroke-width: 0px; fill: rgb(34, 154, 235); fill-opacity: 1;"></path><path class="point" transform="translate(681.6,62.3)" d="M3,0A3,3 0 1,1 0,-3A3,3 0 0,1 3,0Z" style="opacity: 1; stroke-width: 0px; fill: rgb(34, 154, 235); fill-opacity: 1;"></path><path class="point" transform="translate(710,73.75)" d="M3,0A3,3 0 1,1 0,-3A3,3 0 0,1 3,0Z" style="opacity: 1; stroke-width: 0px; fill: rgb(34, 154, 235); fill-opacity: 1;"></path><path class="point" transform="translate(738.4,85.21)" d="M3,0A3,3 0 1,1 0,-3A3,3 0 0,1 3,0Z" style="opacity: 1; stroke-width: 0px; fill: rgb(34, 154, 235); fill-opacity: 1;"></path><path class="point" transform="translate(766.8,96.66)" d="M3,0A3,3 0 1,1 0,-3A3,3 0 0,1 3,0Z" style="opacity: 1; stroke-width: 0px; fill: rgb(34, 154, 235); fill-opacity: 1;"></path><path class="point" transform="translate(795.2,108.11)" d="M3,0A3,3 0 1,1 0,-3A3,3 0 0,1 3,0Z" style="opacity: 1; stroke-width: 0px; fill: rgb(34, 154, 235); fill-opacity: 1;"></path><path class="point" transform="translate(823.6,119.56)" d="M3,0A3,3 0 1,1 0,-3A3,3 0 0,1 3,0Z" style="opacity: 1; stroke-width: 0px; fill: rgb(34, 154, 235); fill-opacity: 1;"></path><path class="point" transform="translate(852,131.02)" d="M3,0A3,3 0 1,1 0,-3A3,3 0 0,1 3,0Z" style="opacity: 1; stroke-width: 0px; fill: rgb(34, 154, 235); fill-opacity: 1;"></path><path class="point" transform="translate(866.85,137.01)" d="M3,0A3,3 0 1,1 0,-3A3,3 0 0,1 3,0Z" style="opacity: 1; stroke-width: 0px; fill: rgb(34, 154, 235); fill-opacity: 1;"></path><path class="point" transform="translate(866.85,137.01)" d="M3,0A3,3 0 1,1 0,-3A3,3 0 0,1 3,0Z" style="opacity: 1; stroke-width: 0px; fill: rgb(34, 154, 235); fill-opacity: 1;"></path><path class="point" transform="translate(866.85,137.01)" d="M3,0A3,3 0 1,1 0,-3A3,3 0 0,1 3,0Z" style="opacity: 1; stroke-width: 0px; fill: rgb(34, 154, 235); fill-opacity: 1;"></path><path class="point" transform="translate(866.85,50.86)" d="M3,0A3,3 0 1,1 0,-3A3,3 0 0,1 3,0Z" style="opacity: 1; stroke-width: 0px; fill: rgb(34, 154, 235); fill-opacity: 1;"></path><path class="point" transform="translate(880.4,56.32)" d="M3,0A3,3 0 1,1 0,-3A3,3 0 0,1 3,0Z" style="opacity: 1; stroke-width: 0px; fill: rgb(34, 154, 235); fill-opacity: 1;"></path><path class="point" transform="translate(908.8,67.77)" d="M3,0A3,3 0 1,1 0,-3A3,3 0 0,1 3,0Z" style="opacity: 1; stroke-width: 0px; fill: rgb(34, 154, 235); fill-opacity: 1;"></path><path class="point" transform="translate(937.2,79.22)" d="M3,0A3,3 0 1,1 0,-3A3,3 0 0,1 3,0Z" style="opacity: 1; stroke-width: 0px; fill: rgb(34, 154, 235); fill-opacity: 1;"></path><path class="point" transform="translate(965.6,90.68)" d="M3,0A3,3 0 1,1 0,-3A3,3 0 0,1 3,0Z" style="opacity: 1; stroke-width: 0px; fill: rgb(34, 154, 235); fill-opacity: 1;"></path><path class="point" transform="translate(994,102.13)" d="M3,0A3,3 0 1,1 0,-3A3,3 0 0,1 3,0Z" style="opacity: 1; stroke-width: 0px; fill: rgb(34, 154, 235); fill-opacity: 1;"></path><path class="point" transform="translate(1022.4,113.58)" d="M3,0A3,3 0 1,1 0,-3A3,3 0 0,1 3,0Z" style="opacity: 1; stroke-width: 0px; fill: rgb(34, 154, 235); fill-opacity: 1;"></path><path class="point" transform="translate(1042.79,121.8)" d="M3,0A3,3 0 1,1 0,-3A3,3 0 0,1 3,0Z" style="opacity: 1; stroke-width: 0px; fill: rgb(34, 154, 235); fill-opacity: 1;"></path><path class="point" transform="translate(1042.79,61.5)" d="M3,0A3,3 0 1,1 0,-3A3,3 0 0,1 3,0Z" style="opacity: 1; stroke-width: 0px; fill: rgb(34, 154, 235); fill-opacity: 1;"></path><path class="point" transform="translate(1050.8,64.73)" d="M3,0A3,3 0 1,1 0,-3A3,3 0 0,1 3,0Z" style="opacity: 1; stroke-width: 0px; fill: rgb(34, 154, 235); fill-opacity: 1;"></path><path class="point" transform="translate(1079.2,76.18)" d="M3,0A3,3 0 1,1 0,-3A3,3 0 0,1 3,0Z" style="opacity: 1; stroke-width: 0px; fill: rgb(34, 154, 235); fill-opacity: 1;"></path><path class="point" transform="translate(1107.6,87.63)" d="M3,0A3,3 0 1,1 0,-3A3,3 0 0,1 3,0Z" style="opacity: 1; stroke-width: 0px; fill: rgb(34, 154, 235); fill-opacity: 1;"></path><path class="point" transform="translate(1136,99.09)" d="M3,0A3,3 0 1,1 0,-3A3,3 0 0,1 3,0Z" style="opacity: 1; stroke-width: 0px; fill: rgb(34, 154, 235); fill-opacity: 1;"></path></g><g class="text"></g></g></g></g></g><path class="xlines-above crisp" d="M0,0" style="fill: none;"></path><path class="ylines-above crisp" d="M0,0" style="fill: none;"></path><g class="overlines-above"></g><g class="xaxislayer-above"><g class="xtick"><text text-anchor="middle" x="0" y="473.00000000000006" data-unformatted="0" data-math="N" transform="translate(65,0)" style="font-family: &quot;Open Sans&quot;, verdana, arial, sans-serif; font-size: 12px; fill: rgb(68, 68, 68); fill-opacity: 1; font-weight: normal; font-style: normal; font-variant: normal; white-space: pre; opacity: 1;">0</text></g><g class="xtick"><text text-anchor="middle" x="0" y="473.00000000000006" data-unformatted="0.5" data-math="N" style="font-family: &quot;Open Sans&quot;, verdana, arial, sans-serif; font-size: 12px; fill: rgb(68, 68, 68); fill-opacity: 1; font-weight: normal; font-style: normal; font-variant: normal; white-space: pre; opacity: 1;" transform="translate(349,0)">0.5</text></g><g class="xtick"><text text-anchor="middle" x="0" y="473.00000000000006" data-unformatted="1" data-math="N" style="font-family: &quot;Open Sans&quot;, verdana, arial, sans-serif; font-size: 12px; fill: rgb(68, 68, 68); fill-opacity: 1; font-weight: normal; font-style: normal; font-variant: normal; white-space: pre; opacity: 1;" transform="translate(633,0)">1</text></g><g class="xtick"><text text-anchor="middle" x="0" y="473.00000000000006" data-unformatted="1.5" data-math="N" style="font-family: &quot;Open Sans&quot;, verdana, arial, sans-serif; font-size: 12px; fill: rgb(68, 68, 68); fill-opacity: 1; font-weight: normal; font-style: normal; font-variant: normal; white-space: pre; opacity: 1;" transform="translate(917,0)">1.5</text></g><g class="xtick"><text text-anchor="middle" x="0" y="473.00000000000006" data-unformatted="2" data-math="N" style="font-family: &quot;Open Sans&quot;, verdana, arial, sans-serif; font-size: 12px; fill: rgb(68, 68, 68); fill-opacity: 1; font-weight: normal; font-style: normal; font-variant: normal; white-space: pre; opacity: 1;" transform="translate(1201,0)">2</text></g></g><g class="yaxislayer-above"><g class="y2tick"><text text-anchor="end" x="64" y="4.199999999999999" data-unformatted="−4" data-math="N" transform="translate(0,436.0357894736843)" style="font-family: &quot;Open Sans&quot;, verdana, arial, sans-serif; font-size: 12px; fill: rgb(68, 68, 68); fill-opacity: 1; font-weight: normal; font-style: normal; font-variant: normal; white-space: pre; opacity: 1;">−4</text></g><g class="y2tick"><text text-anchor="end" x="64" y="4.199999999999999" data-unformatted="−2" data-math="N" style="font-family: &quot;Open Sans&quot;, verdana, arial, sans-serif; font-size: 12px; fill: rgb(68, 68, 68); fill-opacity: 1; font-weight: normal; font-style: normal; font-variant: normal; white-space: pre; opacity: 1;" transform="translate(0,389.34578947368425)">−2</text></g><g class="y2tick"><text text-anchor="end" x="64" y="4.199999999999999" data-unformatted="0" data-math="N" style="font-family: &quot;Open Sans&quot;, verdana, arial, sans-serif; font-size: 12px; fill: rgb(68, 68, 68); fill-opacity: 1; font-weight: normal; font-style: normal; font-variant: normal; white-space: pre; opacity: 1;" transform="translate(0,342.64578947368426)">0</text></g><g class="y2tick"><text text-anchor="end" x="64" y="4.199999999999999" data-unformatted="2" data-math="N" style="font-family: &quot;Open Sans&quot;, verdana, arial, sans-serif; font-size: 12px; fill: rgb(68, 68, 68); fill-opacity: 1; font-weight: normal; font-style: normal; font-variant: normal; white-space: pre; opacity: 1;" transform="translate(0,295.9457894736843)">2</text></g></g><g class="overaxes-above"></g></g></g><g class="polarlayer"></g><g class="smithlayer"></g><g class="ternarylayer"></g><g class="geolayer"></g><g class="funnelarealayer"></g><g class="pielayer"></g><g class="iciclelayer"></g><g class="treemaplayer"></g><g class="sunburstlayer"></g><g class="glimages"></g></svg>