<svg class="main-svg" xmlns="http://www.w3.org/2000/svg" xmlns:xlink="http://www.w3.org/1999/xlink" width="1231.43" height="250" style="background: rgb(255, 255, 255);"><defs id="defs-de691a"><g class="clips"><clipPath id="clipde691axyplot" class="plotclip"><rect width="1136" height="180"></rect></clipPath><clipPath class="axesclip" id="clipde691ax"><rect x="65" y="0" width="1136" height="250"></rect></clipPath><clipPath class="axesclip" id="clipde691ay"><rect x="0" y="30" width="1231.43" height="180"></rect></clipPath><clipPath class="axesclip" id="clipde691axy"><rect x="65" y="30" width="1136" height="180"></rect></clipPath></g><g class="gradients"></g><g class="patterns"></g></defs><g class="bglayer"></g><g class="draglayer cursor-crosshair"><g class="xy"><rect class="nsewdrag drag" data-subplot="xy" x="65" y="30" width="1136" height="180" style="fill: transparent; stroke-width: 0; pointer-events: all;"></rect><rect class="nwdrag drag cursor-nw-resize" data-subplot="xy" x="45" y="10" width="20" height="20" style="fill: transparent; stroke-width: 0; pointer-events: all;"></rect><rect class="nedrag drag cursor-ne-resize" data-subplot="xy" x="1201" y="10" width="20" height="20" style="fill: transparent; stroke-width: 0; pointer-events: all;"></rect><rect class="swdrag drag cursor-sw-resize" data-subplot="xy" x="45" y="210" width="20" height="20" style="fill: transparent; stroke-width: 0; pointer-events: all;"></rect><rect class="sedrag drag cursor-se-resize" data-subplot="xy" x="1201" y="210" width="20" height="20" style="fill: transparent; stroke-width: 0; pointer-events: all;"></rect><rect class="ewdrag drag cursor-ew-resize" data-subplot="xy" x="178.60000000000002" y="210.5" width="908.8000000000001" height="20" style="fill: transparent; stroke-width: 0; pointer-events: all;"></rect><rect class="wdrag drag cursor-w-resize" data-subplot="xy" x="65" y="210.5" width="113.60000000000001" height="20" style="fill: transparent; stroke-width: 0; pointer-events: all;"></rect><rect class="edrag drag cursor-e-resize" data-subplot="xy" x="1087.4" y="210.5" width="113.60000000000001" height="20" style="fill: transparent; stroke-width: 0; pointer-events: all;"></rect><rect class="nsdrag drag cursor-ns-resize" data-subplot="xy" x="44.5" y="48" width="20" height="144" style="fill: transparent; stroke-width: 0; pointer-events: all;"></rect><rect class="sdrag drag cursor-s-resize" data-subplot="xy" x="44.5" y="192" width="20" height="18" style="fill: transparent; stroke-width: 0; pointer-events: all;"></rect><rect class="ndrag drag cursor-n-resize" data-subplot="xy" x="44.5" y="30" width="20" height="18" style="fill: transparent; stroke-width: 0; pointer-events: all;"></rect></g></g><g class="layer-below"><g class="imagelayer"></g><g class="shapelayer"></g></g><g class="cartesianlayer"><g class="subplot xy"><g class="layer-subplot"><g class="shapelayer"></g><g class="imagelayer"></g></g><g class="minor-gridlayer"><g class="x"></g><g class="y"></g></g><g class="gridlayer"><g class="x"><path class="xgrid crisp" transform="translate(254.33,0)" d="M0,30v180" style="stroke: rgb(211, 211, 211); stroke-opacity: 0.5; stroke-width: 1px;"></path><path class="xgrid crisp" transform="translate(443.67,0)" d="M0,30v180" style="stroke: rgb(211, 211, 211); stroke-opacity: 0.5; stroke-width: 1px;"></path><path class="xgrid crisp" transform="translate(633,0)" d="M0,30v180" style="stroke: rgb(211, 211, 211); stroke-opacity: 0.5; stroke-width: 1px;"></path><path class="xgrid crisp" transform="translate(822.33,0)" d="M0,30v180" style="stroke: rgb(211, 211, 211); stroke-opacity: 0.5; stroke-width: 1px;"></path><path class="xgrid crisp" transform="translate(1011.67,0)" d="M0,30v180" style="stroke: rgb(211, 211, 211); stroke-opacity: 0.5; stroke-width: 1px;"></path></g><g class="y"><path class="ygrid crisp" transform="translate(0,153.35)" d="M65,0h1136" style="stroke: rgb(211, 211, 211); stroke-opacity: 0.5; stroke-width: 1px;"></path><path class="ygrid crisp" transform="translate(0,105.71)" d="M65,0h1136" style="stroke: rgb(211, 211, 211); stroke-opacity: 0.5; stroke-width: 1px;"></path><path class="ygrid crisp" transform="translate(0,58.06)" d="M65,0h1136" style="stroke: rgb(211, 211, 211); stroke-opacity: 0.5; stroke-width: 1px;"></path></g></g><g class="zerolinelayer"><path class="xzl zl crisp" transform="translate(65,0)" d="M0,30v180" style="stroke: rgb(211, 211, 211); stroke-opacity: 0.5; stroke-width: 1px;"></path><path class="yzl zl crisp" transform="translate(0,201)" d="M65,0h1136" style="stroke: rgb(211, 211, 211); stroke-opacity: 0.5; stroke-width: 1px;"></path></g><g class="layer-between"><g class="shapelayer"></g><g class="imagelayer"></g></g><path class="xlines-below"></path><path class="ylines-below"></path><g class="overlines-below"></g><g class="xaxislayer-below"></g><g class="yaxislayer-below"></g><g class="overaxes-below"></g><g class="overplot"><g class="xy" transform="translate(65,30)" clip-path="url(#clipde691axyplot)"><g class="scatterlayer mlayer"><g class="trace scatter trace67da75" style="stroke-miterlimit: 2; opacity: 1;"><g class="fills"></g><g class="errorbars"></g><g class="lines"><path class="js-line" d="M0,75.71L15.15,76.44L18.93,76.85L34.08,79.45L37.87,80.33L53.01,84.8L56.8,86.15L71.95,92.49L75.73,94.31L90.88,102.52L94.67,104.8L109.81,114.88L113.6,117.63L132.53,132.8L136.32,136.11L155.25,154.09L159.04,157.96L170.4,170.15L174.19,168.94L193.12,155.6L196.91,153.21L212.05,144.58L215.84,142.66L230.99,135.91L234.77,134.45L249.92,129.57L253.71,128.58L268.85,125.57L272.64,125.05L287.79,123.9L291.57,123.85L306.72,124.58L310.51,124.99L325.65,127.59L329.44,128.47L344.59,132.93L348.37,134.28L363.52,140.62L367.31,142.44L382.45,150.64L386.24,152.93L401.39,163L405.17,165.75L412.75,170.79L416.53,168.76L431.68,161.55L435.47,159.98L450.61,154.64L454.4,153.54L469.55,150.08L473.33,149.44L488.48,147.84L492.27,147.68L507.41,147.95L511.2,148.25L526.35,150.39L530.13,151.16L545.28,155.17L549.07,156.41L564.21,162.29L568,164L579.36,169.67L583.15,170.56L598.29,165.52L602.08,164.49L617.23,161.32L621.01,160.76L636.16,159.46L639.95,159.37L655.09,159.93L658.88,160.31L674.03,162.75L677.81,163.59L692.96,167.89L696.75,169.2L700.53,170.61L704.32,170.29L719.47,167.13L723.25,166.57L738.4,165.28L742.19,165.19L757.33,165.77L761.12,166.15L776.27,168.59L780.05,169.44L787.63,170.78L791.41,170.11L806.56,168.37L810.35,168.17L825.49,168.3L829.28,168.56L848.21,170.84L852,170.38L867.15,169.48L870.93,169.49L886.08,170.45L889.87,170.93L912.59,170.33L916.37,170.53L927.73,170.68L931.52,170.59L1136,171" style="vector-effect: non-scaling-stroke; fill: none; stroke: rgb(34, 154, 235); stroke-opacity: 0.266667; stroke-width: 3px; opacity: 1;"></path></g><g class="points"></g><g class="text"></g></g><g class="trace scatter trace4b9d64" style="stroke-miterlimit: 2; opacity: 1;"><g class="fills"></g><g class="errorbars"></g><g class="lines"><path class="js-line" d="M0,9L15.15,9.73L18.93,10.15L34.08,12.74L37.87,13.63L53.01,18.1L56.8,19.45L71.95,25.78L75.73,27.6L90.88,35.81L94.67,38.1L109.81,48.17L113.6,50.93L128.75,62.87L132.53,66.1L151.47,83.6L155.25,87.38L174.19,107.69L177.97,112.03L196.91,135.15L200.69,140.05L223.41,171L227.2,167.18L246.13,149.49L249.92,146.23L268.85,131.34L272.64,128.65L287.79,118.79L291.57,116.56L306.72,108.58L310.51,106.82L325.65,100.71L329.44,99.41L344.59,95.17L348.37,94.34L363.52,91.96L367.31,91.6L382.45,91.1L386.24,91.21L401.39,92.57L405.17,93.15L420.32,96.38L424.11,97.42L439.25,102.53L443.04,104.04L458.19,111.01L461.97,112.99L477.12,121.83L480.91,124.28L499.84,137.9L503.63,140.91L522.56,157.34L526.35,160.9L533.92,168.32L537.71,170.19L552.85,160.19L556.64,157.93L571.79,149.8L575.57,148.01L590.72,141.75L594.51,140.42L609.65,136.03L613.44,135.17L628.59,132.65L632.37,132.26L647.52,131.61L651.31,131.68L666.45,132.91L670.24,133.45L685.39,136.54L689.17,137.55L704.32,142.51L708.11,143.98L723.25,150.81L727.04,152.76L742.19,161.46L745.97,163.87L757.33,170.62L761.12,168.78L776.27,162.33L780.05,160.95L795.2,156.38L798.99,155.47L814.13,152.76L817.92,152.32L833.07,151.49L836.85,151.51L852,152.54L855.79,153.04L870.93,155.94L874.72,156.9L889.87,161.67L893.65,163.1L912.59,170.6L916.37,169.33L931.52,165.17L935.31,164.37L950.45,162.08L954.24,161.74L969.39,161.33L973.17,161.46L988.32,162.91L992.11,163.51L1007.25,166.83L1011.04,167.9L1018.61,170.31L1022.4,170.63L1037.55,167.7L1041.33,167.2L1056.48,166.14L1060.27,166.11L1075.41,166.92L1079.2,167.36L1094.35,170.04L1098.13,170.95L1117.07,168.79L1120.85,168.61L1136,168.85" style="vector-effect: non-scaling-stroke; fill: none; stroke: rgb(34, 154, 235); stroke-opacity: 1; stroke-width: 1.5px; opacity: 1;"></path></g><g class="points"></g><g class="text"></g></g></g></g></g><path class="xlines-above crisp" d="M0,0" style="fill: none;"></path><path class="ylines-above crisp" d="M0,0" style="fill: none;"></path><g class="overlines-above"></g><g class="xaxislayer-above"><g class="xtick"><text text-anchor="middle" x="0" y="223" data-unformatted="0" data-math="N" transform="translate(65,0)" style="font-family: &quot;Open Sans&quot;, verdana, arial, sans-serif; font-size: 12px; fill: rgb(68, 68, 68); fill-opacity: 1; font-weight: normal; font-style: normal; font-variant: normal; white-space: pre; opacity: 1;">0</text></g><g class="xtick"><text text-anchor="middle" x="0" y="223" data-unformatted="0.5" data-math="N" style="font-family: &quot;Open Sans&quot;, verdana, arial, sans-serif; font-size: 12px; fill: rgb(68, 68, 68); fill-opacity: 1; font-weight: normal; font-style: normal; font-variant: normal; white-space: pre; opacity: 1;" transform="translate(254.33,0)">0.5</text></g><g class="xtick"><text text-anchor="middle" x="0" y="223" data-unformatted="1" data-math="N" style="font-family: &quot;Open Sans&quot;, verdana, arial, sans-serif; font-size: 12px; fill: rgb(68, 68, 68); fill-opacity: 1; font-weight: normal; font-style: normal; font-variant: normal; white-space: pre; opacity: 1;" transform="translate(443.67,0)">1</text></g><g class="xtick"><text text-anchor="middle" x="0" y="223" data-unformatted="1.5" data-math="N" style="font-family: &quot;Open Sans&quot;, verdana, arial, sans-serif; font-size: 12px; fill: rgb(68, 68, 68); fill-opacity: 1; font-weight: normal; font-style: normal; font-variant: normal; white-space: pre; opacity: 1;" transform="translate(633,0)">1.5</text></g><g class="xtick"><text text-anchor="middle" x="0" y="223" data-unformatted="2" data-math="N" style="font-family: &quot;Open Sans&quot;, verdana, arial, sans-serif; font-size: 12px; fill: rgb(68, 68, 68); fill-opacity: 1; font-weight: normal; font-style: normal; font-variant: normal; white-space: pre; opacity: 1;" transform="translate(822.33,0)">2</text></g><g class="xtick"><text text-anchor="middle" x="0" y="223" data-unformatted="2.5" data-math="N" style="font-family: &quot;Open Sans&quot;, verdana, arial, sans-serif; font-size: 12px; fill: rgb(68, 68, 68); fill-opacity: 1; font-weight: normal; font-style: normal; font-variant: normal; white-space: pre; opacity: 1;" transform="translate(1011.67,0)">2.5</text></g><g class="xtick"><text text-anchor="middle" x="0" y="223" data-unformatted="3" data-math="N" style="font-family: &quot;Open Sans&quot;, verdana, arial, sans-serif; font-size: 12px; fill: rgb(68, 68, 68); fill-opacity: 1; font-weight: normal; font-style: normal; font-variant: normal; white-space: pre; opacity: 1;" transform="translate(1201,0)">3</text></g></g><g class="yaxislayer-above"><g class="ytick"><text text-anchor="end" x="64" y="4.199999999999999" data-unformatted="0" data-math="N" transform="translate(0,201)" style="font-family: &quot;Open Sans&quot;, verdana, arial, sans-serif; font-size: 12px; fill: rgb(68, 68, 68); fill-opacity: 1; font-weight: normal; font-style: normal; font-variant: normal; white-space: pre; opacity: 1;">0</text></g><g class="ytick"><text text-anchor="end" x="64" y="4.199999999999999" data-unformatted="0.5" data-math="N" style="font-family: &quot;Open Sans&quot;, verdana, arial, sans-serif; font-size: 12px; fill: rgb(68, 68, 68); fill-opacity: 1; font-weight: normal; font-style: normal; font-variant: normal; white-space: pre; opacity: 1;" transform="translate(0,153.35)">0.5</text></g><g class="ytick"><text text-anchor="end" x="64" y="4.199999999999999" data-unformatted="1" data-math="N" style="font-family: &quot;Open Sans&quot;, verdana, arial, sans-serif; font-size: 12px; fill: rgb(68, 68, 68); fill-opacity: 1; font-weight: normal; font-style: normal; font-variant: normal; white-space: pre; opacity: 1;" transform="translate(0,105.71)">1</text></g><g class="ytick"><text text-anchor="end" x="64" y="4.199999999999999" data-unformatted="1.5" data-math="N" style="font-family: &quot;Open Sans&quot;, verdana, arial, sans-serif; font-size: 12px; fill: rgb(68, 68, 68); fill-opacity: 1; font-weight: normal; font-style: normal; font-variant: normal; white-space: pre; opacity: 1;" transform="translate(0,58.06)">1.5</text></g></g><g class="overaxes-above"></g></g></g><g class="polarlayer"></g><g class="smithlayer"></g><g class="ternarylayer"></g><g class="geolayer"></g><g class="funnelarealayer"></g><g class="pielayer"></g><g class="iciclelayer"></g><g class="treemaplayer"></g><g class="sunburstlayer"></g><g class="glimages"></g></svg>