<svg class="main-svg" xmlns="http://www.w3.org/2000/svg" xmlns:xlink="http://www.w3.org/1999/xlink" width="1745.14" height="500" style="background: rgb(255, 255, 255);"><defs id="defs-81ff1a"><g class="clips"><clipPath id="clip81ff1axyplot" class="plotclip"><rect width="1650" height="203.6842105263158"></rect></clipPath><clipPath id="clip81ff1axy2plot" class="plotclip"><rect width="1650" height="203.68421052631578"></rect></clipPath><clipPath class="axesclip" id="clip81ff1ax"><rect x="65" y="0" width="1650" height="500"></rect></clipPath><clipPath class="axesclip" id="clip81ff1ay"><rect x="0" y="30" width="1745.14" height="203.6842105263158"></rect></clipPath><clipPath class="axesclip" id="clip81ff1axy"><rect x="65" y="30" width="1650" height="203.6842105263158"></rect></clipPath><clipPath class="axesclip" id="clip81ff1ay2"><rect x="0" y="256.3157894736843" width="1745.14" height="203.68421052631578"></rect></clipPath><clipPath class="axesclip" id="clip81ff1axy2"><rect x="65" y="256.3157894736843" width="1650" height="203.68421052631578"></rect></clipPath></g><g class="gradients"></g><g class="patterns"></g></defs><g class="bglayer"></g><g class="draglayer cursor-crosshair"><g class="xy"><rect class="nsewdrag drag" data-subplot="xy" x="65" y="30" width="1650" height="203.6842105263158" style="fill: transparent; stroke-width: 0; pointer-events: all;"></rect><rect class="nwdrag drag cursor-nw-resize" data-subplot="xy" x="45" y="10" width="20" height="20" style="fill: transparent; stroke-width: 0; pointer-events: all;"></rect><rect class="nedrag drag cursor-ne-resize" data-subplot="xy" x="1715" y="10" width="20" height="20" style="fill: transparent; stroke-width: 0; pointer-events: all;"></rect><rect class="swdrag drag cursor-sw-resize" data-subplot="xy" x="45" y="233.6842105263158" width="20" height="20" style="fill: transparent; stroke-width: 0; pointer-events: all;"></rect><rect class="sedrag drag cursor-se-resize" data-subplot="xy" x="1715" y="233.6842105263158" width="20" height="20" style="fill: transparent; stroke-width: 0; pointer-events: all;"></rect><rect class="nsdrag drag cursor-ns-resize" data-subplot="xy" x="44.5" y="50.36842105263158" width="20" height="162.94736842105266" style="fill: transparent; stroke-width: 0; pointer-events: all;"></rect><rect class="sdrag drag cursor-s-resize" data-subplot="xy" x="44.5" y="213.31578947368422" width="20" height="20.368421052631582" style="fill: transparent; stroke-width: 0; pointer-events: all;"></rect><rect class="ndrag drag cursor-n-resize" data-subplot="xy" x="44.5" y="30" width="20" height="20.368421052631582" style="fill: transparent; stroke-width: 0; pointer-events: all;"></rect></g><g class="xy2"><rect class="nsewdrag drag" data-subplot="xy2" x="65" y="256.3157894736843" width="1650" height="203.68421052631578" style="fill: transparent; stroke-width: 0; pointer-events: all;"></rect><rect class="nwdrag drag cursor-nw-resize" data-subplot="xy2" x="45" y="236.31578947368428" width="20" height="20" style="fill: transparent; stroke-width: 0; pointer-events: all;"></rect><rect class="nedrag drag cursor-ne-resize" data-subplot="xy2" x="1715" y="236.31578947368428" width="20" height="20" style="fill: transparent; stroke-width: 0; pointer-events: all;"></rect><rect class="swdrag drag cursor-sw-resize" data-subplot="xy2" x="45" y="460.00000000000006" width="20" height="20" style="fill: transparent; stroke-width: 0; pointer-events: all;"></rect><rect class="sedrag drag cursor-se-resize" data-subplot="xy2" x="1715" y="460.00000000000006" width="20" height="20" style="fill: transparent; stroke-width: 0; pointer-events: all;"></rect><rect class="ewdrag drag cursor-ew-resize" data-subplot="xy2" x="230" y="460.50000000000006" width="1320" height="20" style="fill: transparent; stroke-width: 0; pointer-events: all;"></rect><rect class="wdrag drag cursor-w-resize" data-subplot="xy2" x="65" y="460.50000000000006" width="165" height="20" style="fill: transparent; stroke-width: 0; pointer-events: all;"></rect><rect class="edrag drag cursor-e-resize" data-subplot="xy2" x="1550" y="460.50000000000006" width="165" height="20" style="fill: transparent; stroke-width: 0; pointer-events: all;"></rect><rect class="nsdrag drag cursor-ns-resize" data-subplot="xy2" x="44.5" y="276.68421052631584" width="20" height="162.94736842105263" style="fill: transparent; stroke-width: 0; pointer-events: all;"></rect><rect class="sdrag drag cursor-s-resize" data-subplot="xy2" x="44.5" y="439.6315789473685" width="20" height="20.36842105263158" style="fill: transparent; stroke-width: 0; pointer-events: all;"></rect><rect class="ndrag drag cursor-n-resize" data-subplot="xy2" x="44.5" y="256.3157894736843" width="20" height="20.36842105263158" style="fill: transparent; stroke-width: 0; pointer-events: all;"></rect></g></g><g class="layer-below"><g class="imagelayer"></g><g class="shapelayer"></g></g><g class="cartesianlayer"><g class="subplot xy"><g class="layer-subplot"><g class="shapelayer"></g><g class="imagelayer"></g></g><g class="minor-gridlayer"><g class="x"></g><g class="y"></g></g><g class="gridlayer"><g class="x"><path class="xgrid crisp" transform="translate(340,0)" d="M0,30v203.6842105263158" style="stroke: rgb(211, 211, 211); stroke-opacity: 0.5; stroke-width: 1px;"></path><path class="xgrid crisp" transform="translate(615,0)" d="M0,30v203.6842105263158" style="stroke: rgb(211, 211, 211); stroke-opacity: 0.5; stroke-width: 1px;"></path><path class="xgrid crisp" transform="translate(890,0)" d="M0,30v203.6842105263158" style="stroke: rgb(211, 211, 211); stroke-opacity: 0.5; stroke-width: 1px;"></path><path class="xgrid crisp" transform="translate(1165,0)" d="M0,30v203.6842105263158" style="stroke: rgb(211, 211, 211); stroke-opacity: 0.5; stroke-width: 1px;"></path><path class="xgrid crisp" transform="translate(1440,0)" d="M0,30v203.6842105263158" style="stroke: rgb(211, 211, 211); stroke-opacity: 0.5; stroke-width: 1px;"></path></g><g class="y"><path class="ygrid crisp" transform="translate(0,186.84)" d="M65,0h1650" style="stroke: rgb(211, 211, 211); stroke-opacity: 0.5; stroke-width: 1px;"></path><path class="ygrid crisp" transform="translate(0,150.17000000000002)" d="M65,0h1650" style="stroke: rgb(211, 211, 211); stroke-opacity: 0.5; stroke-width: 1px;"></path><path class="ygrid crisp" transform="translate(0,113.51)" d="M65,0h1650" style="stroke: rgb(211, 211, 211); stroke-opacity: 0.5; stroke-width: 1px;"></path><path class="ygrid crisp" transform="translate(0,76.85)" d="M65,0h1650" style="stroke: rgb(211, 211, 211); stroke-opacity: 0.5; stroke-width: 1px;"></path><path class="ygrid crisp" transform="translate(0,40.18)" d="M65,0h1650" style="stroke: rgb(211, 211, 211); stroke-opacity: 0.5; stroke-width: 1px;"></path></g></g><g class="zerolinelayer"><path class="xzl zl crisp" transform="translate(65,0)" d="M0,30v203.6842105263158" style="stroke: rgb(211, 211, 211); stroke-opacity: 0.5; stroke-width: 1px;"></path><path class="yzl zl crisp" transform="translate(0,223.5)" d="M65,0h1650" style="stroke: rgb(211, 211, 211); stroke-opacity: 0.5; stroke-width: 1px;"></path></g><g class="layer-between"><g class="shapelayer"></g><g class="imagelayer"></g></g><path class="xlines-below"></path><path class="ylines-below"></path><g class="overlines-below"></g><g class="xaxislayer-below"></g><g class="yaxislayer-below"></g><g class="overaxes-below"></g><g class="overplot"><g class="xy" transform="translate(65,30)" clip-path="url(#clip81ff1axyplot)"><g class="scatterlayer mlayer"><g class="trace scatter trace8b2f93" style="stroke-miterlimit: 2; opacity: 1;"><g class="fills"></g><g class="errorbars"></g><g class="lines"><path class="js-line" d="M0,10.18L16.5,10.97L22,11.59L38.5,14.53L44,15.87L60.5,20.97L66,23.02L82.5,30.28L88,33.06L104.5,42.47L110,45.97L126.5,57.54L132,61.76L148.5,75.49L154,80.43L170.5,96.32L176,101.97L198,126.39L203.5,132.95L225.5,160.97L231,168.42L247.5,191.86L253,189.55L269.5,173.6L275,168.64L291.5,154.85L297,150.62L313.5,138.98L319,135.47L335.5,125.99L341,123.19L357.5,115.88L363,113.8L379.5,108.64L385,107.28L401.5,104.28L407,103.64L423.5,102.8L429,102.88L445.5,104.2L451,105L467.5,108.47L473,109.99L489.5,115.62L495,117.86L511.5,125.65L517,128.6L533.5,138.55L539,142.23L555.5,154.33L561,158.73L577.5,172.99L583,178.11L594,188.88L599.5,193.1L616,181.89L621.5,178.52L638,169.47L643.5,166.81L660,159.92L665.5,157.98L682,153.25L687.5,152.03L704,149.46L709.5,148.96L726,148.54L731.5,148.76L748,150.5L753.5,151.44L770,155.34L775.5,157L792,163.06L797.5,165.44L814,173.65L819.5,176.75L836,187.12L841.5,190.94L847,192.66L852.5,189.96L869,182.96L874.5,180.98L891,176.14L896.5,174.88L913,172.19L918.5,171.65L935,171.12L940.5,171.31L957,172.93L962.5,173.83L979,177.62L984.5,179.24L1001,185.18L1006.5,187.53L1017.5,192.75L1023,192.14L1039.5,187.31L1045,186.06L1061.5,183.38L1067,182.85L1083.5,182.34L1089,182.52L1105.5,184.17L1111,185.07L1127.5,188.87L1133,190.5L1138.5,192.3L1144,193.08L1160.5,189.76L1166,189.01L1182.5,187.85L1188,187.82L1204.5,188.81L1210,189.51L1232,193.2L1237.5,192.32L1254,190.74L1259.5,190.58L1276,191.16L1281.5,191.72L1292.5,193.37L1298,192.96L1314.5,191.97L1320,192L1347.5,192.89L1353,192.71L1430,193.43L1435.5,193.5L1650,193.5" style="vector-effect: non-scaling-stroke; fill: none; stroke: rgb(34, 154, 235); stroke-opacity: 1; stroke-width: 1.5px; opacity: 1;"></path></g><g class="points"></g><g class="text"></g></g></g></g></g><path class="xlines-above crisp" d="M0,0" style="fill: none;"></path><path class="ylines-above crisp" d="M0,0" style="fill: none;"></path><g class="overlines-above"></g><g class="xaxislayer-above"></g><g class="yaxislayer-above"><g class="ytick"><text text-anchor="end" x="64" y="4.199999999999999" data-unformatted="0" data-math="N" transform="translate(0,223.5)" style="font-family: &quot;Open Sans&quot;, verdana, arial, sans-serif; font-size: 12px; fill: rgb(68, 68, 68); fill-opacity: 1; font-weight: normal; font-style: normal; font-variant: normal; white-space: pre; opacity: 1;">0</text></g><g class="ytick"><text text-anchor="end" x="64" y="4.199999999999999" data-unformatted="0.2" data-math="N" style="font-family: &quot;Open Sans&quot;, verdana, arial, sans-serif; font-size: 12px; fill: rgb(68, 68, 68); fill-opacity: 1; font-weight: normal; font-style: normal; font-variant: normal; white-space: pre; opacity: 1;" transform="translate(0,186.84)">0.2</text></g><g class="ytick"><text text-anchor="end" x="64" y="4.199999999999999" data-unformatted="0.4" data-math="N" style="font-family: &quot;Open Sans&quot;, verdana, arial, sans-serif; font-size: 12px; fill: rgb(68, 68, 68); fill-opacity: 1; font-weight: normal; font-style: normal; font-variant: normal; white-space: pre; opacity: 1;" transform="translate(0,150.17000000000002)">0.4</text></g><g class="ytick"><text text-anchor="end" x="64" y="4.199999999999999" data-unformatted="0.6" data-math="N" style="font-family: &quot;Open Sans&quot;, verdana, arial, sans-serif; font-size: 12px; fill: rgb(68, 68, 68); fill-opacity: 1; font-weight: normal; font-style: normal; font-variant: normal; white-space: pre; opacity: 1;" transform="translate(0,113.51)">0.6</text></g><g class="ytick"><text text-anchor="end" x="64" y="4.199999999999999" data-unformatted="0.8" data-math="N" style="font-family: &quot;Open Sans&quot;, verdana, arial, sans-serif; font-size: 12px; fill: rgb(68, 68, 68); fill-opacity: 1; font-weight: normal; font-style: normal; font-variant: normal; white-space: pre; opacity: 1;" transform="translate(0,76.85)">0.8</text></g><g class="ytick"><text text-anchor="end" x="64" y="4.199999999999999" data-unformatted="1" data-math="N" style="font-family: &quot;Open Sans&quot;, verdana, arial, sans-serif; font-size: 12px; fill: rgb(68, 68, 68); fill-opacity: 1; font-weight: normal; font-style: normal; font-variant: normal; white-space: pre; opacity: 1;" transform="translate(0,40.18)">1</text></g></g><g class="overaxes-above"></g></g><g class="subplot xy2"><g class="layer-subplot"><g class="shapelayer"></g><g class="imagelayer"></g></g><g class="minor-gridlayer"><g class="x"></g><g class="y2"></g></g><g class="gridlayer"><g class="x"><path class="xgrid crisp" transform="translate(340,0)" d="M0,256.3157894736843v203.68421052631578" style="stroke: rgb(211, 211, 211); stroke-opacity: 0.5; stroke-width: 1px;"></path><path class="xgrid crisp" transform="translate(615,0)" d="M0,256.3157894736843v203.68421052631578" style="stroke: rgb(211, 211, 211); stroke-opacity: 0.5; stroke-width: 1px;"></path><path class="xgrid crisp" transform="translate(890,0)" d="M0,256.3157894736843v203.68421052631578" style="stroke: rgb(211, 211, 211); stroke-opacity: 0.5; stroke-width: 1px;"></path><path class="xgrid crisp" transform="translate(1165,0)" d="M0,256.3157894736843v203.68421052631578" style="stroke: rgb(211, 211, 211); stroke-opacity: 0.5; stroke-width: 1px;"></path><path class="xgrid crisp" transform="translate(1440,0)" d="M0,256.3157894736843v203.68421052631578" style="stroke: rgb(211, 211, 211); stroke-opacity: 0.5; stroke-width: 1px;"></path></g><g class="y2"><path class="y2grid crisp" transform="translate(0,439.6257894736843)" d="M65,0h1650" style="stroke: rgb(211, 211, 211); stroke-opacity: 0.5; stroke-width: 1px;"></path><path class="y2grid crisp" transform="translate(0,390.45578947368426)" d="M65,0h1650" style="stroke: rgb(211, 211, 211); stroke-opacity: 0.5; stroke-width: 1px;"></path><path class="y2grid crisp" transform="translate(0,292.1157894736843)" d="M65,0h1650" style="stroke: rgb(211, 211, 211); stroke-opacity: 0.5; stroke-width: 1px;"></path></g></g><g class="zerolinelayer"><path class="xzl zl crisp" transform="translate(65,0)" d="M0,256.3157894736843v203.68421052631578" style="stroke: rgb(211, 211, 211); stroke-opacity: 0.5; stroke-width: 1px;"></path><path class="y2zl zl crisp" transform="translate(0,341.2857894736843)" d="M65,0h1650" style="stroke: rgb(211, 211, 211); stroke-opacity: 0.5; stroke-width: 1px;"></path></g><g class="layer-between"><g class="shapelayer"></g><g class="imagelayer"></g></g><path class="xlines-below"></path><path class="ylines-below"></path><g class="overlines-below"></g><g class="xaxislayer-below"></g><g class="yaxislayer-below"></g><g class="overaxes-below"></g><g class="overplot"><g class="xy2" transform="translate(65,256.3157894736843)" clip-path="url(#clip81ff1axy2plot)"><g class="scatterlayer mlayer"><g class="trace scatter tracebb9ba0" style="stroke-miterlimit: 2; opacity: 1;"><g class="fills"></g><g class="errorbars"></g><g class="lines"><path class="js-line" d="M0,84.97L247.5,193.5L253,10.18L594,159.71L599.5,31.38L841.5,137.49L847,47.75L1017.5,122.51L1023,59.87L1138.5,110.52L1144,66.63L1226.5,102.81L1232,72.03L1292.5,98.56L1298,77.05L1336.5,93.93L1342,79.06L1369.5,91.12L1375,80.62L1397,90.27L1402.5,82.86L1413.5,87.68L1419,82.62L1430,87.44L1435.5,84.97L1650,84.97" style="vector-effect: non-scaling-stroke; fill: none; stroke: rgb(34, 154, 235); stroke-opacity: 1; stroke-width: 1.5px; opacity: 1;"></path></g><g class="points"></g><g class="text"></g></g></g></g></g><path class="xlines-above crisp" d="M0,0" style="fill: none;"></path><path class="ylines-above crisp" d="M0,0" style="fill: none;"></path><g class="overlines-above"></g><g class="xaxislayer-above"><g class="xtick"><text text-anchor="middle" x="0" y="473.00000000000006" data-unformatted="0" data-math="N" transform="translate(65,0)" style="font-family: &quot;Open Sans&quot;, verdana, arial, sans-serif; font-size: 12px; fill: rgb(68, 68, 68); fill-opacity: 1; font-weight: normal; font-style: normal; font-variant: normal; white-space: pre; opacity: 1;">0</text></g><g class="xtick"><text text-anchor="middle" x="0" y="473.00000000000006" data-unformatted="0.5" data-math="N" style="font-family: &quot;Open Sans&quot;, verdana, arial, sans-serif; font-size: 12px; fill: rgb(68, 68, 68); fill-opacity: 1; font-weight: normal; font-style: normal; font-variant: normal; white-space: pre; opacity: 1;" transform="translate(340,0)">0.5</text></g><g class="xtick"><text text-anchor="middle" x="0" y="473.00000000000006" data-unformatted="1" data-math="N" style="font-family: &quot;Open Sans&quot;, verdana, arial, sans-serif; font-size: 12px; fill: rgb(68, 68, 68); fill-opacity: 1; font-weight: normal; font-style: normal; font-variant: normal; white-space: pre; opacity: 1;" transform="translate(615,0)">1</text></g><g class="xtick"><text text-anchor="middle" x="0" y="473.00000000000006" data-unformatted="1.5" data-math="N" style="font-family: &quot;Open Sans&quot;, verdana, arial, sans-serif; font-size: 12px; fill: rgb(68, 68, 68); fill-opacity: 1; font-weight: normal; font-style: normal; font-variant: normal; white-space: pre; opacity: 1;" transform="translate(890,0)">1.5</text></g><g class="xtick"><text text-anchor="middle" x="0" y="473.00000000000006" data-unformatted="2" data-math="N" style="font-family: &quot;Open Sans&quot;, verdana, arial, sans-serif; font-size: 12px; fill: rgb(68, 68, 68); fill-opacity: 1; font-weight: normal; font-style: normal; font-variant: normal; white-space: pre; opacity: 1;" transform="translate(1165,0)">2</text></g><g class="xtick"><text text-anchor="middle" x="0" y="473.00000000000006" data-unformatted="2.5" data-math="N" style="font-family: &quot;Open Sans&quot;, verdana, arial, sans-serif; font-size: 12px; fill: rgb(68, 68, 68); fill-opacity: 1; font-weight: normal; font-style: normal; font-variant: normal; white-space: pre; opacity: 1;" transform="translate(1440,0)">2.5</text></g><g class="xtick"><text text-anchor="middle" x="0" y="473.00000000000006" data-unformatted="3" data-math="N" style="font-family: &quot;Open Sans&quot;, verdana, arial, sans-serif; font-size: 12px; fill: rgb(68, 68, 68); fill-opacity: 1; font-weight: normal; font-style: normal; font-variant: normal; white-space: pre; opacity: 1;" transform="translate(1715,0)">3</text></g></g><g class="yaxislayer-above"><g class="y2tick"><text text-anchor="end" x="64" y="4.199999999999999" data-unformatted="−4" data-math="N" transform="translate(0,439.6257894736843)" style="font-family: &quot;Open Sans&quot;, verdana, arial, sans-serif; font-size: 12px; fill: rgb(68, 68, 68); fill-opacity: 1; font-weight: normal; font-style: normal; font-variant: normal; white-space: pre; opacity: 1;">−4</text></g><g class="y2tick"><text text-anchor="end" x="64" y="4.199999999999999" data-unformatted="−2" data-math="N" style="font-family: &quot;Open Sans&quot;, verdana, arial, sans-serif; font-size: 12px; fill: rgb(68, 68, 68); fill-opacity: 1; font-weight: normal; font-style: normal; font-variant: normal; white-space: pre; opacity: 1;" transform="translate(0,390.45578947368426)">−2</text></g><g class="y2tick"><text text-anchor="end" x="64" y="4.199999999999999" data-unformatted="0" data-math="N" style="font-family: &quot;Open Sans&quot;, verdana, arial, sans-serif; font-size: 12px; fill: rgb(68, 68, 68); fill-opacity: 1; font-weight: normal; font-style: normal; font-variant: normal; white-space: pre; opacity: 1;" transform="translate(0,341.2857894736843)">0</text></g><g class="y2tick"><text text-anchor="end" x="64" y="4.199999999999999" data-unformatted="2" data-math="N" style="font-family: &quot;Open Sans&quot;, verdana, arial, sans-serif; font-size: 12px; fill: rgb(68, 68, 68); fill-opacity: 1; font-weight: normal; font-style: normal; font-variant: normal; white-space: pre; opacity: 1;" transform="translate(0,292.1157894736843)">2</text></g></g><g class="overaxes-above"></g></g></g><g class="polarlayer"></g><g class="smithlayer"></g><g class="ternarylayer"></g><g class="geolayer"></g><g class="funnelarealayer"></g><g class="pielayer"></g><g class="iciclelayer"></g><g class="treemaplayer"></g><g class="sunburstlayer"></g><g class="glimages"></g></svg>